<mxfile host="app.diagrams.net" modified="2024-03-18T14:40:36.814Z" agent="Mozilla/5.0 (Windows NT 10.0; Win64; x64; rv:123.0) Gecko/20100101 Firefox/123.0" etag="Ojy6XMwJ48KB0FVAtEih" version="24.0.7" type="device">
  <diagram name="Page-1" id="c9db0220-8083-56f3-ca83-edcdcd058819">
    <mxGraphModel dx="1562" dy="2673.5" grid="1" gridSize="10" guides="1" tooltips="1" connect="1" arrows="1" fold="1" page="1" pageScale="1.5" pageWidth="826" pageHeight="1169" background="none" math="0" shadow="0">
      <root>
        <mxCell id="0" style=";html=1;" />
        <mxCell id="1" style=";html=1;" parent="0" />
        <mxCell id="Ttr84EOkdywErjfj4eGt-183" value="" style="rounded=0;whiteSpace=wrap;html=1;fillColor=#CCCCCC;strokeColor=none;" vertex="1" parent="1">
          <mxGeometry x="39" y="-1590" width="1080" height="800" as="geometry" />
        </mxCell>
        <mxCell id="Ttr84EOkdywErjfj4eGt-185" value="Logout" style="text;strokeColor=none;align=center;fillColor=none;html=1;verticalAlign=middle;whiteSpace=wrap;rounded=0;" vertex="1" parent="1">
          <mxGeometry x="1060" y="-1635" width="60" height="30" as="geometry" />
        </mxCell>
        <mxCell id="Ttr84EOkdywErjfj4eGt-186" value="" style="group" vertex="1" connectable="0" parent="1">
          <mxGeometry x="40" y="-1650" width="1080" height="60" as="geometry" />
        </mxCell>
        <mxCell id="Ttr84EOkdywErjfj4eGt-187" value="&lt;font style=&quot;font-size: 12px;&quot;&gt;Home&lt;/font&gt;" style="html=1;shadow=0;dashed=0;fillColor=#F8F9FA;strokeColor=none;fontSize=16;fontColor=#181819;align=left;spacing=15;rounded=0;verticalAlign=middle;fontFamily=Helvetica;" vertex="1" parent="Ttr84EOkdywErjfj4eGt-186">
          <mxGeometry width="1080" height="60" as="geometry" />
        </mxCell>
        <mxCell id="Ttr84EOkdywErjfj4eGt-188" value="Liste des tournois" style="fillColor=none;strokeColor=none;fontSize=16;fontColor=#181819;align=center;rounded=0;verticalAlign=middle;fontFamily=Helvetica;" vertex="1" parent="Ttr84EOkdywErjfj4eGt-187">
          <mxGeometry width="100" height="40" relative="1" as="geometry">
            <mxPoint x="80" y="10" as="offset" />
          </mxGeometry>
        </mxCell>
        <mxCell id="Ttr84EOkdywErjfj4eGt-189" value="Search" style="html=1;shadow=0;dashed=0;shape=mxgraph.bootstrap.rrect;rSize=5;fontSize=14;fontColor=#33A64C;strokeColor=#33A64C;fillColor=none;rounded=0;align=center;verticalAlign=middle;fontFamily=Helvetica;" vertex="1" parent="Ttr84EOkdywErjfj4eGt-187">
          <mxGeometry x="1" width="70" height="40" relative="1" as="geometry">
            <mxPoint x="-170" y="10" as="offset" />
          </mxGeometry>
        </mxCell>
        <mxCell id="Ttr84EOkdywErjfj4eGt-190" value="Search" style="html=1;shadow=0;dashed=0;shape=mxgraph.bootstrap.rrect;rSize=5;fontSize=14;fontColor=#6C767D;strokeColor=#CED4DA;fillColor=#ffffff;align=left;spacing=10;rounded=0;verticalAlign=middle;fontFamily=Helvetica;" vertex="1" parent="Ttr84EOkdywErjfj4eGt-187">
          <mxGeometry x="1" width="180" height="40" relative="1" as="geometry">
            <mxPoint x="-360" y="10" as="offset" />
          </mxGeometry>
        </mxCell>
        <mxCell id="Ttr84EOkdywErjfj4eGt-191" value="&lt;font style=&quot;font-size: 12px;&quot; face=&quot;Verdana&quot;&gt;Réservation des terrains&lt;/font&gt;" style="text;strokeColor=none;align=center;fillColor=none;html=1;verticalAlign=top;whiteSpace=wrap;rounded=0;" vertex="1" parent="Ttr84EOkdywErjfj4eGt-187">
          <mxGeometry x="327" y="10" width="110" height="30" as="geometry" />
        </mxCell>
        <mxCell id="Ttr84EOkdywErjfj4eGt-192" value="&lt;font style=&quot;font-size: 12px;&quot;&gt;Messagerie&lt;/font&gt;" style="text;strokeColor=none;align=center;fillColor=none;html=1;verticalAlign=top;whiteSpace=wrap;rounded=0;fontSize=14;" vertex="1" parent="Ttr84EOkdywErjfj4eGt-187">
          <mxGeometry x="558" y="17" width="70" height="30" as="geometry" />
        </mxCell>
        <mxCell id="Ttr84EOkdywErjfj4eGt-193" value="&lt;div style=&quot;&quot; align=&quot;left&quot;&gt;&lt;font style=&quot;font-size: 12px;&quot; face=&quot;Verdana&quot;&gt;Liste des terrains&lt;br&gt;&lt;/font&gt;&lt;/div&gt;" style="text;strokeColor=none;align=left;fillColor=none;html=1;verticalAlign=top;whiteSpace=wrap;rounded=0;" vertex="1" parent="Ttr84EOkdywErjfj4eGt-187">
          <mxGeometry x="206" y="17" width="120" height="30" as="geometry" />
        </mxCell>
        <mxCell id="Ttr84EOkdywErjfj4eGt-194" value="&lt;font style=&quot;font-size: 12px;&quot; face=&quot;Verdana&quot;&gt;Liste des coach&lt;/font&gt;" style="text;strokeColor=none;align=center;fillColor=none;html=1;verticalAlign=middle;whiteSpace=wrap;rounded=0;" vertex="1" parent="Ttr84EOkdywErjfj4eGt-187">
          <mxGeometry x="446" y="17" width="100" height="30" as="geometry" />
        </mxCell>
        <mxCell id="Ttr84EOkdywErjfj4eGt-195" value="&lt;font face=&quot;Verdana&quot;&gt;Logout&lt;/font&gt;" style="text;strokeColor=none;align=center;fillColor=none;html=1;verticalAlign=middle;whiteSpace=wrap;rounded=0;" vertex="1" parent="Ttr84EOkdywErjfj4eGt-186">
          <mxGeometry x="1000" y="15" width="60" height="30" as="geometry" />
        </mxCell>
        <mxCell id="Ttr84EOkdywErjfj4eGt-228" value="" style="group" vertex="1" connectable="0" parent="1">
          <mxGeometry x="95" y="-1545" width="537" height="327" as="geometry" />
        </mxCell>
        <mxCell id="Ttr84EOkdywErjfj4eGt-220" value="" style="group" vertex="1" connectable="0" parent="Ttr84EOkdywErjfj4eGt-228">
          <mxGeometry width="537" height="37" as="geometry" />
        </mxCell>
        <mxCell id="Ttr84EOkdywErjfj4eGt-128" value="" style="whiteSpace=wrap;html=1;" vertex="1" parent="Ttr84EOkdywErjfj4eGt-220">
          <mxGeometry width="537" height="37" as="geometry" />
        </mxCell>
        <mxCell id="Ttr84EOkdywErjfj4eGt-159" value="" style="group" vertex="1" connectable="0" parent="Ttr84EOkdywErjfj4eGt-220">
          <mxGeometry x="40" y="3.5" width="107" height="30" as="geometry" />
        </mxCell>
        <mxCell id="Ttr84EOkdywErjfj4eGt-219" value="" style="group" vertex="1" connectable="0" parent="Ttr84EOkdywErjfj4eGt-159">
          <mxGeometry width="107" height="30" as="geometry" />
        </mxCell>
        <mxCell id="Ttr84EOkdywErjfj4eGt-129" value="&lt;font style=&quot;font-size: 18px;&quot;&gt;Tournois :&lt;/font&gt;" style="text;strokeColor=none;align=center;fillColor=none;html=1;verticalAlign=middle;whiteSpace=wrap;rounded=0;" vertex="1" parent="Ttr84EOkdywErjfj4eGt-219">
          <mxGeometry x="20" width="87" height="30" as="geometry" />
        </mxCell>
        <mxCell id="Ttr84EOkdywErjfj4eGt-132" value="" style="triangle;whiteSpace=wrap;html=1;" vertex="1" parent="Ttr84EOkdywErjfj4eGt-219">
          <mxGeometry y="10" width="7.5" height="10" as="geometry" />
        </mxCell>
        <mxCell id="Ttr84EOkdywErjfj4eGt-226" value="" style="group" vertex="1" connectable="0" parent="Ttr84EOkdywErjfj4eGt-228">
          <mxGeometry y="37" width="537" height="290" as="geometry" />
        </mxCell>
        <mxCell id="Ttr84EOkdywErjfj4eGt-224" value="" style="group" vertex="1" connectable="0" parent="Ttr84EOkdywErjfj4eGt-226">
          <mxGeometry width="537" height="290" as="geometry" />
        </mxCell>
        <mxCell id="Ttr84EOkdywErjfj4eGt-131" value="" style="whiteSpace=wrap;html=1;" vertex="1" parent="Ttr84EOkdywErjfj4eGt-224">
          <mxGeometry width="537" height="290" as="geometry" />
        </mxCell>
        <mxCell id="Ttr84EOkdywErjfj4eGt-157" value="" style="group" vertex="1" connectable="0" parent="Ttr84EOkdywErjfj4eGt-224">
          <mxGeometry x="50" y="40" width="480" height="60" as="geometry" />
        </mxCell>
        <mxCell id="Ttr84EOkdywErjfj4eGt-223" value="" style="group" vertex="1" connectable="0" parent="Ttr84EOkdywErjfj4eGt-157">
          <mxGeometry x="-20" width="480" height="60" as="geometry" />
        </mxCell>
        <mxCell id="Ttr84EOkdywErjfj4eGt-222" value="" style="group" vertex="1" connectable="0" parent="Ttr84EOkdywErjfj4eGt-223">
          <mxGeometry width="480" height="60" as="geometry" />
        </mxCell>
        <mxCell id="Ttr84EOkdywErjfj4eGt-133" value="" style="rounded=1;whiteSpace=wrap;html=1;shadow=1;glass=0;" vertex="1" parent="Ttr84EOkdywErjfj4eGt-222">
          <mxGeometry width="480" height="60" as="geometry" />
        </mxCell>
        <mxCell id="Ttr84EOkdywErjfj4eGt-221" value="" style="group" vertex="1" connectable="0" parent="Ttr84EOkdywErjfj4eGt-222">
          <mxGeometry x="22" y="15" width="446" height="30" as="geometry" />
        </mxCell>
        <mxCell id="Ttr84EOkdywErjfj4eGt-134" value="&lt;font face=&quot;Verdana&quot;&gt;Brabant&lt;/font&gt;" style="text;strokeColor=none;align=center;fillColor=none;html=1;verticalAlign=middle;whiteSpace=wrap;rounded=0;" vertex="1" parent="Ttr84EOkdywErjfj4eGt-221">
          <mxGeometry x="98" width="60" height="30" as="geometry" />
        </mxCell>
        <mxCell id="Ttr84EOkdywErjfj4eGt-135" value="&lt;font face=&quot;Verdana&quot;&gt;Hainaut&lt;/font&gt;" style="text;strokeColor=none;align=center;fillColor=none;html=1;verticalAlign=middle;whiteSpace=wrap;rounded=0;" vertex="1" parent="Ttr84EOkdywErjfj4eGt-221">
          <mxGeometry x="186" width="60" height="30" as="geometry" />
        </mxCell>
        <mxCell id="Ttr84EOkdywErjfj4eGt-136" value="&lt;font face=&quot;Verdana&quot;&gt;Liège&lt;/font&gt;" style="text;strokeColor=none;align=center;fillColor=none;html=1;verticalAlign=middle;whiteSpace=wrap;rounded=0;" vertex="1" parent="Ttr84EOkdywErjfj4eGt-221">
          <mxGeometry x="271" width="60" height="30" as="geometry" />
        </mxCell>
        <mxCell id="Ttr84EOkdywErjfj4eGt-137" value="&lt;font face=&quot;Verdana&quot;&gt;Namur-Luxembourg&lt;/font&gt;" style="text;strokeColor=none;align=center;fillColor=none;html=1;verticalAlign=middle;whiteSpace=wrap;rounded=0;" vertex="1" parent="Ttr84EOkdywErjfj4eGt-221">
          <mxGeometry x="356" width="90" height="30" as="geometry" />
        </mxCell>
        <mxCell id="Ttr84EOkdywErjfj4eGt-138" value="&lt;font face=&quot;Verdana&quot;&gt;Près de chez moi&lt;/font&gt;" style="text;strokeColor=none;align=center;fillColor=none;html=1;verticalAlign=middle;whiteSpace=wrap;rounded=0;" vertex="1" parent="Ttr84EOkdywErjfj4eGt-221">
          <mxGeometry width="60" height="30" as="geometry" />
        </mxCell>
        <mxCell id="Ttr84EOkdywErjfj4eGt-176" value="" style="rounded=1;whiteSpace=wrap;html=1;align=center;verticalAlign=middle;fontFamily=Helvetica;fontSize=12;fillColor=none;strokeWidth=2;glass=1;strokeColor=#b85450;" vertex="1" parent="Ttr84EOkdywErjfj4eGt-223">
          <mxGeometry width="110" height="60" as="geometry" />
        </mxCell>
        <mxCell id="Ttr84EOkdywErjfj4eGt-225" value="" style="group" vertex="1" connectable="0" parent="Ttr84EOkdywErjfj4eGt-226">
          <mxGeometry x="30" y="115" width="477" height="150" as="geometry" />
        </mxCell>
        <mxCell id="Ttr84EOkdywErjfj4eGt-247" value="" style="group" vertex="1" connectable="0" parent="Ttr84EOkdywErjfj4eGt-225">
          <mxGeometry width="477" height="150" as="geometry" />
        </mxCell>
        <mxCell id="Ttr84EOkdywErjfj4eGt-173" value="" style="whiteSpace=wrap;html=1;rounded=0;align=center;verticalAlign=middle;fontFamily=Helvetica;fontSize=12;fontColor=default;fillColor=#CCCCCC;" vertex="1" parent="Ttr84EOkdywErjfj4eGt-247">
          <mxGeometry width="477" height="150" as="geometry" />
        </mxCell>
        <mxCell id="Ttr84EOkdywErjfj4eGt-246" value="" style="group" vertex="1" connectable="0" parent="Ttr84EOkdywErjfj4eGt-247">
          <mxGeometry x="13.5" y="18" width="446.5" height="72" as="geometry" />
        </mxCell>
        <mxCell id="Ttr84EOkdywErjfj4eGt-248" value="" style="group" vertex="1" connectable="0" parent="Ttr84EOkdywErjfj4eGt-246">
          <mxGeometry y="-4" width="446.5" height="72" as="geometry" />
        </mxCell>
        <mxCell id="Ttr84EOkdywErjfj4eGt-239" value="" style="rounded=1;whiteSpace=wrap;html=1;align=center;verticalAlign=middle;fontFamily=Helvetica;fontSize=12;fontColor=default;fillColor=#FFFFFF;" vertex="1" parent="Ttr84EOkdywErjfj4eGt-248">
          <mxGeometry width="446.5" height="72" as="geometry" />
        </mxCell>
        <mxCell id="Ttr84EOkdywErjfj4eGt-245" value="" style="group" vertex="1" connectable="0" parent="Ttr84EOkdywErjfj4eGt-248">
          <mxGeometry x="6.5" width="350" height="59" as="geometry" />
        </mxCell>
        <mxCell id="Ttr84EOkdywErjfj4eGt-240" value="&lt;div style=&quot;font-size: 13px;&quot; align=&quot;left&quot;&gt;&lt;font style=&quot;font-size: 13px;&quot; face=&quot;Verdana&quot;&gt;Wimbledon&lt;/font&gt;&lt;font style=&quot;font-size: 13px;&quot;&gt; 18-03-24&lt;/font&gt;&lt;/div&gt;" style="text;strokeColor=none;align=left;fillColor=none;html=1;verticalAlign=middle;whiteSpace=wrap;rounded=0;fontFamily=Helvetica;fontSize=12;fontColor=default;" vertex="1" parent="Ttr84EOkdywErjfj4eGt-245">
          <mxGeometry width="130" height="22" as="geometry" />
        </mxCell>
        <mxCell id="Ttr84EOkdywErjfj4eGt-242" value="&lt;div align=&quot;left&quot;&gt;&lt;font style=&quot;font-size: 10px;&quot;&gt;Catégorie AD&lt;/font&gt;&lt;/div&gt;" style="text;strokeColor=none;align=left;fillColor=none;html=1;verticalAlign=middle;whiteSpace=wrap;rounded=0;fontFamily=Helvetica;fontSize=12;fontColor=default;" vertex="1" parent="Ttr84EOkdywErjfj4eGt-245">
          <mxGeometry x="1" y="16" width="70" height="14" as="geometry" />
        </mxCell>
        <mxCell id="Ttr84EOkdywErjfj4eGt-243" value="&lt;font style=&quot;font-size: 11px;&quot;&gt;DM2, DM3, DM4, DM5, DM6, DD4, DD5, DD6, DMX3, DMX4, DMX5, DMX6&lt;/font&gt;" style="text;strokeColor=none;align=center;fillColor=none;html=1;verticalAlign=middle;whiteSpace=wrap;rounded=0;fontFamily=Helvetica;fontSize=12;fontColor=default;" vertex="1" parent="Ttr84EOkdywErjfj4eGt-245">
          <mxGeometry y="35" width="350" height="8" as="geometry" />
        </mxCell>
        <mxCell id="Ttr84EOkdywErjfj4eGt-244" value="Circuit Allan Sport" style="text;strokeColor=none;align=center;fillColor=none;html=1;verticalAlign=middle;whiteSpace=wrap;rounded=0;fontFamily=Helvetica;fontSize=12;fontColor=default;" vertex="1" parent="Ttr84EOkdywErjfj4eGt-245">
          <mxGeometry x="1" y="49" width="100" height="10" as="geometry" />
        </mxCell>
      </root>
    </mxGraphModel>
  </diagram>
</mxfile>
